<svg width="18" height="18" viewBox="0 0 18 18" fill="none" xmlns="http://www.w3.org/2000/svg">
<defs>
<linearGradient id="paint0_linear_2_165" x1="-2.87533" y1="9.00001" x2="21.4618" y2="9.00001" gradientUnits="userSpaceOnUse">
<stop stop-color="#3CA3EE"/>
<stop offset="1" stop-color="#4C42C4"/>
</linearGradient>
</defs>
<path d="M15.3633 2.10938H10.9336C10.8756 2.10938 10.8281 2.15684 10.8281 2.21484V3.19922C10.8281 3.25723 10.8756 3.30469 10.9336 3.30469H13.7531L10.2498 6.80801C9.3709 6.13125 8.29863 5.76562 7.17188 5.76562C5.82012 5.76562 4.54746 6.29297 3.59297 7.24922C2.63848 8.20547 2.10938 9.47637 2.10938 10.8281C2.10938 12.1799 2.63672 13.4525 3.59297 14.407C4.54746 15.3633 5.82012 15.8906 7.17188 15.8906C8.52363 15.8906 9.79629 15.3633 10.7508 14.407C11.707 13.4525 12.2344 12.1799 12.2344 10.8281C12.2344 9.70137 11.8687 8.63262 11.1937 7.75371L14.6953 4.25215V7.06641C14.6953 7.12441 14.7428 7.17188 14.8008 7.17188H15.7852C15.8432 7.17188 15.8906 7.12441 15.8906 7.06641V2.63672C15.8906 2.34668 15.6533 2.10938 15.3633 2.10938ZM7.17188 14.5547C5.11699 14.5547 3.44531 12.883 3.44531 10.8281C3.44531 8.77324 5.11699 7.10156 7.17188 7.10156C9.22676 7.10156 10.8984 8.77324 10.8984 10.8281C10.8984 12.883 9.22676 14.5547 7.17188 14.5547Z" fill="#EEEEEE"/>
<path d="M15.3633 2.10938H10.9336C10.8756 2.10938 10.8281 2.15684 10.8281 2.21484V3.19922C10.8281 3.25723 10.8756 3.30469 10.9336 3.30469H13.7531L10.2498 6.80801C9.3709 6.13125 8.29863 5.76562 7.17188 5.76562C5.82012 5.76562 4.54746 6.29297 3.59297 7.24922C2.63848 8.20547 2.10938 9.47637 2.10938 10.8281C2.10938 12.1799 2.63672 13.4525 3.59297 14.407C4.54746 15.3633 5.82012 15.8906 7.17188 15.8906C8.52363 15.8906 9.79629 15.3633 10.7508 14.407C11.707 13.4525 12.2344 12.1799 12.2344 10.8281C12.2344 9.70137 11.8687 8.63262 11.1937 7.75371L14.6953 4.25215V7.06641C14.6953 7.12441 14.7428 7.17188 14.8008 7.17188H15.7852C15.8432 7.17188 15.8906 7.12441 15.8906 7.06641V2.63672C15.8906 2.34668 15.6533 2.10938 15.3633 2.10938ZM7.17188 14.5547C5.11699 14.5547 3.44531 12.883 3.44531 10.8281C3.44531 8.77324 5.11699 7.10156 7.17188 7.10156C9.22676 7.10156 10.8984 8.77324 10.8984 10.8281C10.8984 12.883 9.22676 14.5547 7.17188 14.5547Z" fill="url(#paint0_linear_2_165)"/>
</svg>
