<svg width="25" height="24" viewBox="0 0 25 24" fill="none" xmlns="http://www.w3.org/2000/svg">
<path d="M15.4258 4.28863C15.4257 3.27406 15.7854 2.29232 16.4408 1.51789C17.0963 0.743469 18.0051 0.226522 19.0057 0.0589238C20.0064 -0.108674 21.034 0.0839336 21.906 0.602517C22.7781 1.1211 23.438 1.93207 23.7685 2.89129C24.0991 3.85052 24.0788 4.89587 23.7113 5.84156C23.3439 6.78725 22.653 7.57202 21.7615 8.05641C20.87 8.5408 19.8357 8.69343 18.8423 8.48717C17.8489 8.2809 16.9608 7.72912 16.3359 6.92986L8.4242 10.8857C8.61944 11.6139 8.61944 12.3806 8.4242 13.1087L16.3393 17.068C16.9953 16.233 17.938 15.6713 18.9846 15.4918C20.0312 15.3123 21.1071 15.5278 22.0038 16.0966C22.9006 16.6653 23.5542 17.5467 23.8379 18.57C24.1217 19.5933 24.0154 20.6854 23.5397 21.6348C23.0639 22.5841 22.2526 23.323 21.2631 23.7082C20.2735 24.0933 19.1762 24.0974 18.1839 23.7195C17.1915 23.3415 16.3748 22.6086 15.8922 21.6628C15.4095 20.717 15.2952 19.6256 15.5715 18.6003L7.65634 14.641C7.10616 15.3424 6.35095 15.8547 5.49589 16.1066C4.64083 16.3585 3.72849 16.3375 2.88593 16.0465C2.04338 15.7554 1.31257 15.2089 0.795287 14.4829C0.278002 13.757 0 12.8878 0 11.9964C0 11.105 0.278002 10.2358 0.795287 9.5098C1.31257 8.78384 2.04338 8.23728 2.88593 7.94625C3.72849 7.65521 4.64083 7.63419 5.49589 7.88611C6.35095 8.13803 7.10616 8.65034 7.65634 9.3517L15.5697 5.39757C15.4736 5.03578 15.4252 4.66298 15.4258 4.28863ZM19.7141 1.71425C19.0316 1.71425 18.377 1.98539 17.8944 2.46802C17.4117 2.95065 17.1406 3.60523 17.1406 4.28778C17.1406 4.97032 17.4117 5.62491 17.8944 6.10754C18.377 6.59017 19.0316 6.8613 19.7141 6.8613C20.3967 6.8613 21.0513 6.59017 21.5339 6.10754C22.0165 5.62491 22.2876 4.97032 22.2876 4.28778C22.2876 3.60523 22.0165 2.95065 21.5339 2.46802C21.0513 1.98539 20.3967 1.71425 19.7141 1.71425ZM19.7107 17.14C19.0288 17.14 18.3749 17.4109 17.8928 17.893C17.4106 18.3752 17.1397 19.0291 17.1397 19.7109C17.1397 20.3928 17.4106 21.0467 17.8928 21.5289C18.3749 22.011 19.0288 22.2819 19.7107 22.2819C20.3926 22.2819 21.0465 22.011 21.5286 21.5289C22.0108 21.0467 22.2817 20.3928 22.2817 19.7109C22.2817 19.0291 22.0108 18.3752 21.5286 17.893C21.0465 17.4109 20.3926 17.14 19.7107 17.14ZM1.714 11.9981C1.714 12.3357 1.7805 12.67 1.9097 12.9819C2.0389 13.2939 2.22828 13.5773 2.46701 13.816C2.70575 14.0548 2.98917 14.2441 3.30109 14.3733C3.61302 14.5025 3.94733 14.569 4.28496 14.569C4.62258 14.569 4.95689 14.5025 5.26882 14.3733C5.58074 14.2441 5.86416 14.0548 6.1029 13.816C6.34163 13.5773 6.53101 13.2939 6.66021 12.9819C6.78941 12.67 6.85591 12.3357 6.85591 11.9981C6.85591 11.3162 6.58504 10.6623 6.1029 10.1801C5.62075 9.69799 4.96681 9.42712 4.28496 9.42712C3.60309 9.42712 2.94916 9.69799 2.46701 10.1801C1.98487 10.6623 1.714 11.3162 1.714 11.9981Z" fill="#EEEEEE"/>
</svg>
