<svg width="16" height="16" viewBox="0 0 16 16" fill="none" xmlns="http://www.w3.org/2000/svg">
<path d="M3.84356 7.68725V6.07839C2.61127 6.07839 1.60895 5.07608 1.60895 3.84378C1.60895 2.6114 2.61127 1.60905 3.84356 1.60905C4.96099 1.60905 5.82416 2.51285 6.40873 4.29543C7.05444 6.26444 7.15082 8.66569 7.15082 9.92186V16H8.75967V9.92186C8.75967 6.08727 9.62584 1.60911 12.0669 1.60911C13.2992 1.60911 14.3015 2.61143 14.3015 3.84372C14.3015 5.07589 13.2992 6.0782 12.0669 6.0782V7.68706C14.1862 7.68706 15.9104 5.96283 15.9104 3.84353C15.9104 1.72423 14.1862 0 12.0669 0C9.85048 0 8.35744 1.90689 7.95521 4.44017C7.46127 1.87723 6.13611 0 3.84353 0C1.72426 0 0 1.72423 0 3.84353C0 5.96293 1.72423 7.68706 3.84353 7.68706L3.84356 7.68725Z" fill="white"/>
</svg>
