<svg width="16" height="16" viewBox="0 0 16 16" fill="none" xmlns="http://www.w3.org/2000/svg">
<g clip-path="url(#clip0_159_228)">
<path d="M14.8771 1.15719L13.7197 -0.00012207C11.3622 1.62687 9.75708 4.26719 9.53679 7.28694H7.34052C7.12017 4.26735 5.51517 1.6269 3.15756 -0.00012207L2.00024 1.15719C4.07179 2.47756 5.50387 4.71112 5.72957 7.28679H5.22968V8.71297H5.72957C5.50375 11.2884 4.07148 13.5221 2.00056 14.8426L3.15788 15.9999C5.5152 14.3728 7.12023 11.7326 7.34052 8.71281H9.53679C9.75727 11.7323 11.3623 14.3725 13.7197 15.9999L14.8771 14.8426C12.8058 13.5222 11.3734 11.2886 11.1477 8.71297H11.6476V7.28679H11.1477C11.3736 4.71137 12.8056 2.47766 14.8771 1.15719V1.15719Z" fill="white"/>
</g>
<defs>
<clipPath id="clip0_159_228">
<rect width="16" height="16" fill="white"/>
</clipPath>
</defs>
</svg>
