<svg width="16" height="16" viewBox="0 0 16 16" fill="none" xmlns="http://www.w3.org/2000/svg">
<path d="M1.42226 14.222H3.02219V3.02214C3.02219 2.00082 3.66021 1.5999 4.44443 1.5999C5.22864 1.5999 5.86667 2.00082 5.86667 3.02214V12.1887L7.46659 10.4888V3.02224C7.46659 2.00091 8.10462 1.6 8.88884 1.6C9.67305 1.6 10.3111 2.00091 10.3111 3.02224V8.35711L8.88884 9.89392L4.50919 14.6269L5.6834 15.7135L8.88877 12.25L10.311 10.7132V13.1555C10.311 14.7238 11.587 16 13.1555 16H15.1111V14.4001H13.1554C12.4694 14.4001 11.911 13.8418 11.911 13.1557V8.98396L14.9574 5.69193L14.9554 5.69019C15.5996 4.9862 15.9943 4.04944 15.9943 3.02231V2.84448H15.9999C15.9999 1.27618 14.7239 0 13.1554 0C12.3269 0 11.5825 0.447171 11.0623 1.01425C10.5127 0.444441 9.74287 0 8.88881 0C8.00885 0 7.21892 0.467393 6.66661 1.06771C6.1143 0.467393 5.32437 0 4.44441 0C3.56445 0 2.77452 0.467393 2.2222 1.06771C1.66989 0.467393 0.879961 0 0 0V1.59992C0.784216 1.59992 1.42224 2.00084 1.42224 3.02216L1.42226 14.222ZM11.9111 2.84437C11.9111 1.92114 12.4695 1.59996 13.1555 1.59996C13.8415 1.59996 14.3999 2.15824 14.3999 2.84437V3.02219H14.3944C14.3944 3.63565 14.1567 4.19345 13.7713 4.61307L13.7738 4.61542L11.911 6.6283V3.02198C11.911 2.96208 11.9056 2.90343 11.902 2.84415L11.9111 2.84437Z" fill="white"/>
</svg>
