<svg width="16" height="16" viewBox="0 0 16 16" fill="none" xmlns="http://www.w3.org/2000/svg">
<g clip-path="url(#clip0_159_214)">
<path d="M-0.000244141 12.6444H15.9996V14.2443H-0.000244141V12.6444Z" fill="white"/>
<path d="M13.3776 6.37772C13.3776 3.41248 10.9651 1 7.99984 1C5.03453 1 2.62211 3.41242 2.62211 6.37772C2.62211 7.36594 2.89121 8.29215 3.35845 9.08875L-0.000244141 9.08887V10.6888H5.51081V9.21236C5.46481 9.17181 5.41868 9.13126 5.37478 9.08885C4.66532 8.40172 4.2219 7.44118 4.2219 6.37783C4.2219 4.2949 5.91645 2.60009 7.99964 2.60009C10.0828 2.60009 11.7774 4.2949 11.7774 6.37783C11.7774 7.44131 11.334 8.40187 10.6245 9.08885C10.5806 9.13151 10.5346 9.17206 10.4885 9.21236V10.6888H15.9995V9.08887H12.6408C13.1081 8.29224 13.3772 7.36603 13.3772 6.37772L13.3776 6.37772Z" fill="white"/>
</g>
<defs>
<clipPath id="clip0_159_214">
<rect width="16" height="16" fill="white"/>
</clipPath>
</defs>
</svg>
