<svg width="16" height="16" viewBox="0 0 16 16" fill="none" xmlns="http://www.w3.org/2000/svg">
<path d="M12.4444 6.3844C10.4838 6.3844 8.88883 7.97937 8.88883 9.93992C8.88883 10.662 9.10659 11.3339 9.478 11.8955H0V13.4954H12.4443C14.4049 13.4954 15.9998 11.9005 15.9998 9.93992C15.9998 7.97937 14.4049 6.3844 12.4443 6.3844H12.4444ZM12.4444 11.8955C11.3661 11.8955 10.4888 11.0181 10.4888 9.93986C10.4888 8.86161 11.3661 7.98426 12.4444 7.98426C13.5226 7.98426 14.4 8.86161 14.4 9.93986C14.4 11.0181 13.5226 11.8955 12.4444 11.8955Z" fill="white"/>
<path d="M0 6.55898C0 8.52137 1.59497 10.118 3.55552 10.118C5.51607 10.118 7.11104 8.52153 7.11104 6.55898C7.11104 5.8354 6.89291 5.16255 6.52101 4.60004H16V3.00012L3.55565 3C1.5951 3 0.000126913 4.59646 0.000126913 6.55901L0 6.55898ZM5.51106 6.55898C5.51106 7.63906 4.6337 8.51778 3.55546 8.51778C2.47709 8.51778 1.59986 7.63906 1.59986 6.55885C1.59986 5.47864 2.47721 4.59992 3.55546 4.59992C4.6337 4.60004 5.51106 5.47877 5.51106 6.55898V6.55898Z" fill="white"/>
</svg>
