<svg width="16" height="16" viewBox="0 0 16 16" fill="none" xmlns="http://www.w3.org/2000/svg">
<g clip-path="url(#clip0_159_221)">
<path d="M13.8854 6.87598L13.8868 6.87399C13.0663 6.30355 12.3623 5.71066 11.7959 5.12869C13.051 4.95608 14.0218 3.87968 14.0218 2.57774C14.0218 1.15638 12.8653 0 11.4441 0C10.0227 0 8.86633 1.15651 8.86633 2.57774C8.86633 2.75111 8.88406 2.92012 8.9168 3.08381H8.9163C8.91668 3.08579 8.91742 3.08753 8.91767 3.08926V3.08939C8.94892 3.24601 8.99344 3.40102 9.04403 3.55516L6.42708 3.55541L4.37363 9.57985L2.47979 1.42208H-0.000244141V3.02202H1.20858L3.51972 12.9776H4.90562L7.57229 5.15535H9.71775C10.6615 6.45224 12.0397 7.53792 12.9717 8.18611L12.9685 8.19057C13.1658 8.31346 13.3501 8.45558 13.5135 8.6194C14.061 9.16651 14.3999 9.92209 14.3999 10.7553C14.3999 12.4218 13.0441 13.7775 11.3777 13.7775C10.5443 13.7775 9.78868 13.4387 9.24157 12.8913L8.11087 14.0222C8.94779 14.8592 10.1033 15.3775 11.3775 15.3775C13.9264 15.3775 15.9998 13.3039 15.9998 10.7553C15.9998 9.48101 15.4814 8.32552 14.6444 7.48835C14.4143 7.25831 14.1594 7.05346 13.8854 6.87562L13.8854 6.87598ZM10.7772 3.55566C10.6341 3.2821 10.5347 3.01944 10.4857 2.77341L10.482 2.77415L10.4857 2.77217C10.4731 2.7093 10.4664 2.64432 10.4664 2.57785C10.4664 2.03868 10.9051 1.60004 11.4442 1.60004C11.9833 1.60004 12.422 2.03864 12.422 2.57785C12.422 3.11706 11.9833 3.55566 11.4442 3.55566L10.7772 3.55566Z" fill="white"/>
</g>
<defs>
<clipPath id="clip0_159_221">
<rect width="16" height="16" fill="white"/>
</clipPath>
</defs>
</svg>
