<svg width="16" height="16" viewBox="0 0 16 16" fill="none" xmlns="http://www.w3.org/2000/svg">
<path d="M4.02195 13.5999C5.69112 13.5999 7.0442 12.2468 7.0442 10.5776C7.0442 10.3618 7.02076 10.1516 6.97748 9.94839C6.9776 9.94839 6.97959 9.94876 6.97959 9.94876C6.83536 9.15834 6.47237 8.51547 6.11884 7.8892C5.68045 7.11265 5.26616 6.37927 5.26616 5.33309C5.26616 3.27451 6.94092 1.59968 8.99956 1.59968C11.0583 1.59968 12.733 3.27457 12.733 5.33309C12.733 6.04802 12.5275 6.71432 12.1774 7.28265L12.1824 7.28563C12.0642 7.47846 11.928 7.69313 11.7809 7.92491C10.8325 9.42059 9.5331 11.4685 9.5331 13.0666C9.5331 13.8173 9.81957 14.568 10.3924 15.1408C11.5378 16.2864 13.3953 16.2864 14.5407 15.1408L13.4093 14.0094C12.8895 14.5293 12.0436 14.5293 11.5237 14.0094C11.2638 13.7495 11.1339 13.408 11.1339 13.0667H11.1334C11.1334 11.9335 12.3366 10.0371 13.1327 8.78251C13.286 8.54094 13.4282 8.31672 13.551 8.11621L13.5485 8.1146C14.0459 7.30433 14.3336 6.35193 14.3336 5.33344C14.3336 2.39252 11.9411 0 9.00015 0C6.05923 0 3.66671 2.39252 3.66671 5.33344C3.66671 6.2232 3.87418 6.9395 4.14812 7.56215C4.1062 7.56041 4.06478 7.5557 4.02225 7.5557C2.35307 7.5557 1 8.90877 1 10.5779C0.999876 12.2469 2.35257 13.5999 4.02177 13.5999L4.02195 13.5999ZM4.02195 9.15533C4.80618 9.15533 5.44423 9.79337 5.44423 10.5776C5.44423 11.3618 4.80618 11.9999 4.02195 11.9999C3.23771 11.9999 2.59967 11.3618 2.59967 10.5776C2.59967 9.7935 3.23771 9.15533 4.02195 9.15533V9.15533Z" fill="white"/>
</svg>
