<svg width="16" height="16" viewBox="0 0 16 16" fill="none" xmlns="http://www.w3.org/2000/svg">
<g clip-path="url(#clip0_159_231)">
<path d="M13.7212 12.4445L14.3998 11.677V13.1555C14.3998 13.8417 13.8413 14.3999 13.1553 14.3999C12.4693 14.3999 11.9109 13.8416 11.9109 13.1555L11.9108 3.02218C11.9108 1.35304 10.5578 0 8.88863 0C8.00866 0 7.21873 0.467396 6.66641 1.06771C6.11409 0.467396 5.32416 0 4.44419 0C3.56422 0 2.77429 0.467396 2.22197 1.06771C1.66966 0.467396 0.879722 0 -0.000244141 0V1.59993C0.783976 1.59993 1.42201 2.00085 1.42201 3.02218V14.2222H3.02194V3.02218C3.02194 2.00085 3.65997 1.59993 4.44419 1.59993C5.22841 1.59993 5.86644 2.00085 5.86644 3.02218V14.2222H7.46638V3.02218C7.46638 2.00085 8.10441 1.59993 8.88863 1.59993C9.67285 1.59993 10.3109 2.23796 10.3109 3.02218V13.1555C10.3109 14.7238 11.5869 16 13.1554 16C14.7239 16 15.9999 15.0205 15.9999 12.9778V11.5232L15.9998 7.9029L12.5899 11.3134L13.7212 12.4445Z" fill="white"/>
</g>
<defs>
<clipPath id="clip0_159_231">
<rect width="16" height="16" fill="white"/>
</clipPath>
</defs>
</svg>
