<svg width="16" height="16" viewBox="0 0 16 16" fill="none" xmlns="http://www.w3.org/2000/svg">
<g clip-path="url(#clip0_159_201)">
<path d="M8.00003 4.56053C5.13437 4.56053 2.61033 3.07681 1.15059 0.838696L0 1.98929C1.16322 3.64551 2.82801 4.92263 4.7704 5.6058C3.13388 6.66752 2.04811 8.50941 2.04811 10.6011C2.04811 13.8832 4.71821 16.553 8 16.553C11.2818 16.553 13.9519 13.8831 13.9519 10.6011C13.9519 8.50928 12.8661 6.66737 11.2296 5.60548C13.1717 4.92212 14.8366 3.64513 16 1.98897L14.8494 0.838379C13.3899 3.07672 10.8658 4.56053 7.99997 4.56053H8.00003ZM12.3973 10.5568C12.3973 12.9815 10.4246 14.9541 8.00003 14.9541C5.57549 14.9541 3.60274 12.9815 3.60274 10.5568C3.60274 8.13224 5.57549 6.15955 8.00003 6.15955C10.4246 6.15955 12.3973 8.13231 12.3973 10.5568Z" fill="white"/>
</g>
<defs>
<clipPath id="clip0_159_201">
<rect width="16" height="16" fill="white"/>
</clipPath>
</defs>
</svg>
